HIERARCHY
ROOT Hips
{
	OFFSET 0.000000 0.000000 0.000000
	CHANNELS 6 Xposition Yposition Zposition Xrotation Yrotation Zrotation
	JOINT LeftUpLeg_virtual
	{
		OFFSET 0.000000 0.000000 0.000000
		CHANNELS 3 Xrotation Yrotation Zrotation
		JOINT LeftUpLeg
		{
			OFFSET 11.394100 -6.187798 -0.413800
			CHANNELS 3 Xrotation Yrotation Zrotation
			JOINT LeftLeg
			{
				OFFSET 0.430247 -32.302673 3.732800
				CHANNELS 3 Xrotation Yrotation Zrotation
				JOINT LeftFoot
				{
					OFFSET -0.430247 -48.264931 -6.423300
					CHANNELS 3 Xrotation Yrotation Zrotation
					JOINT LeftToeBase
					{
						OFFSET 4.230900 -16.068199 23.438400
						CHANNELS 3 Xrotation Yrotation Zrotation
						JOINT LeftToe_End
						{
							OFFSET 4.510700 0.695400 19.974600
							CHANNELS 3 Xrotation Yrotation Zrotation
							End Site
							{
								OFFSET 0 0 0
							}
						}
					}
				}
			}
		}
	}
	JOINT RightUpLeg_virtual
	{
		OFFSET 0.000000 0.000000 0.000000
		CHANNELS 3 Xrotation Yrotation Zrotation
		JOINT RightUpLeg
		{
			OFFSET -11.333700 -6.187798 -0.413800
			CHANNELS 3 Xrotation Yrotation Zrotation
			JOINT RightLeg
			{
				OFFSET -0.430392 -32.302628 3.733000
				CHANNELS 3 Xrotation Yrotation Zrotation
				JOINT RightFoot
				{
					OFFSET 0.430392 -48.264973 -6.423500
					CHANNELS 3 Xrotation Yrotation Zrotation
					JOINT RightToeBase
					{
						OFFSET -4.230900 -16.068199 23.438400
						CHANNELS 3 Xrotation Yrotation Zrotation
						JOINT RightToe_End
						{
							OFFSET -4.510700 0.695400 19.974600
							CHANNELS 3 Xrotation Yrotation Zrotation
							End Site
							{
								OFFSET 0 0 0
							}
						}
					}
				}
			}
		}
	}
	JOINT Spine_virtual
	{
		OFFSET 0.000000 0.000000 0.000000
		CHANNELS 3 Xrotation Yrotation Zrotation
		JOINT Spine
		{
			OFFSET -0.002400 12.777504 0.315300
			CHANNELS 3 Xrotation Yrotation Zrotation
			JOINT Spine1
			{
				OFFSET -0.002067 5.816869 0.032633
				CHANNELS 3 Xrotation Yrotation Zrotation
				JOINT Spine1_split
				{
					OFFSET -0.002067 5.816869 0.032633
					CHANNELS 3 Xrotation Yrotation Zrotation
					JOINT Spine2
					{
						OFFSET -0.002067 5.816869 0.032633
						CHANNELS 3 Xrotation Yrotation Zrotation
						JOINT Neck_virtual
						{
							OFFSET 0.000000 0.000000 0.000000
							CHANNELS 3 Xrotation Yrotation Zrotation
							JOINT Neck
							{
								OFFSET -0.003700 21.199493 -0.826900
								CHANNELS 3 Xrotation Yrotation Zrotation
								JOINT Head
								{
									OFFSET 0.000000 20.442200 4.834800
									CHANNELS 3 Xrotation Yrotation Zrotation
									JOINT HeadTop_End
									{
										OFFSET 0.000000 34.668396 4.968400
										CHANNELS 3 Xrotation Yrotation Zrotation
										End Site
										{
											OFFSET 0 0 0
										}
									}
								}
							}
						}
						JOINT LeftShoulder_virtual
						{
							OFFSET 0.000000 0.000000 0.000000
							CHANNELS 3 Xrotation Yrotation Zrotation
							JOINT LeftShoulder
							{
								OFFSET 3.288150 8.794197 -1.372250
								CHANNELS 3 Xrotation Yrotation Zrotation
								JOINT LeftShoulder_split
								{
									OFFSET 3.288150 8.794197 -1.372250
									CHANNELS 3 Xrotation Yrotation Zrotation
									JOINT LeftArm
									{
										OFFSET 11.953299 -2.279007 -0.146200
										CHANNELS 3 Xrotation Yrotation Zrotation
										JOINT LeftForeArm
										{
											OFFSET 18.448900 0.000000 0.000000
											CHANNELS 3 Xrotation Yrotation Zrotation
											JOINT LeftHand
											{
												OFFSET 29.527798 0.000000 0.000000
												CHANNELS 3 Xrotation Yrotation Zrotation
												End Site
												{
													OFFSET 0 0 0
												}
											}
										}
									}
								}
							}
						}
						JOINT RightShoulder_virtual
						{
							OFFSET 0.000000 0.000000 0.000000
							CHANNELS 3 Xrotation Yrotation Zrotation
							JOINT RightShoulder
							{
								OFFSET -3.249400 8.794197 -1.372250
								CHANNELS 3 Xrotation Yrotation Zrotation
								JOINT RightShoulder_split
								{
									OFFSET -3.249400 8.794197 -1.372250
									CHANNELS 3 Xrotation Yrotation Zrotation
									JOINT RightArm
									{
										OFFSET -11.953299 -2.279007 -0.146200
										CHANNELS 3 Xrotation Yrotation Zrotation
										JOINT RightForeArm
										{
											OFFSET -18.448900 0.000000 0.000000
											CHANNELS 3 Xrotation Yrotation Zrotation
											JOINT RightHand
											{
												OFFSET -29.527802 0.000000 0.000000
												CHANNELS 3 Xrotation Yrotation Zrotation
												End Site
												{
													OFFSET 0 0 0
												}
											}
										}
									}
								}
							}
						}
					}
				}
			}
		}
	}
}
MOTION
Frames: 5
Frame Time: 0.03333333
-0.094848 87.719887 -1.030972 0.000000 0.000000 0.000000 -14.105918 4.530662 -0.297358 -25.032414 -3.958057 14.212367 57.686651 0.162745 0.432407 -17.972412 -2.016469 -12.543734 -0.000037 0.000000 -0.000003 0.000000 0.000000 0.000000 -14.105918 4.530662 -0.297358 -21.067725 -7.911021 -16.943498 57.213315 -0.422742 -0.460136 -20.835164 -3.273320 11.293799 -0.000077 0.000002 0.000002 0.000000 0.000000 0.000000 -14.105918 4.530662 -0.297358 20.019298 -0.022329 0.781068 6.967087 -0.338070 0.675294 0.000000 0.000000 0.000000 0.000000 0.000000 0.000000 6.967313 -0.337866 0.674353 -12.249458 -1.248218 -0.495995 -16.116730 -1.754206 -0.002254 0.000000 0.000000 0.000000 6.967313 -0.337866 0.674353 3.082220 -9.945119 -6.811324 0.000000 0.000000 0.000000 -13.959271 -7.908215 -60.295278 69.634339 -63.509093 71.597144 0.000000 0.000000 0.000000 6.967313 -0.337866 0.674353 8.709540 -2.418525 18.823139 0.000000 0.000000 0.000000 -21.494479 12.934334 56.855512 76.344105 65.516991 -70.724560 0.000000 0.000000 0.000000 
-0.072592 87.710709 -1.036451 0.000000 0.000000 0.000000 -14.048055 4.576487 -0.326515 -25.158749 -3.936025 14.244231 57.738820 0.026895 0.431547 -17.973067 -1.977458 -12.470220 -0.000037 -0.000001 -0.000003 0.000000 0.000000 0.000000 -14.048055 4.576487 -0.326515 -21.123926 -7.939892 -16.940216 57.213097 -0.421293 -0.460119 -20.827455 -3.290549 11.308909 -0.000077 0.000002 0.000002 0.000000 0.000000 0.000000 -14.048055 4.576487 -0.326515 20.019320 -0.021826 0.784100 6.967765 -0.333987 0.674075 0.000000 0.000000 0.000000 0.000000 0.000000 0.000000 6.967979 -0.333705 0.672075 -12.339807 -1.259015 -0.511593 -16.061070 -1.772782 0.024099 0.000000 0.000000 0.000000 6.967979 -0.333705 0.672075 3.081511 -9.932724 -6.899785 0.000000 0.000000 0.000000 -13.772136 -8.303073 -59.856602 69.210553 -63.491191 71.193664 0.000000 0.000000 0.000000 6.967979 -0.333705 0.672075 8.739787 -2.465331 18.929306 0.000000 0.000000 0.000000 -21.199623 13.256775 56.475586 76.163938 65.580348 -70.597382 0.000000 0.000000 0.000000 
-0.025773 87.712776 -1.003006 0.000000 0.000000 0.000000 -14.042866 4.678872 -0.322391 -25.181270 -3.977232 14.187361 57.768770 -0.008146 0.431052 -17.999188 -1.978509 -12.419605 -0.000037 -0.000001 -0.000003 0.000000 0.000000 0.000000 -14.042866 4.678872 -0.322391 -21.057728 -8.009421 -16.997708 57.166976 -0.426648 -0.459952 -20.843483 -3.306513 11.359200 -0.000077 0.000002 0.000002 0.000000 0.000000 0.000000 -14.042866 4.678872 -0.322391 20.021721 -0.021897 0.780796 6.977814 -0.325597 0.664433 0.000000 0.000000 0.000000 0.000000 0.000000 0.000000 6.978043 -0.325380 0.661027 -12.616685 -1.310841 -0.527832 -15.787572 -1.817843 0.025407 0.000000 0.000000 0.000000 6.978043 -0.325380 0.661027 3.089950 -9.968828 -6.840616 0.000000 0.000000 0.000000 -13.142233 -9.459942 -58.568647 68.458528 -63.706240 70.544680 0.000000 0.000000 0.000000 6.978043 -0.325380 0.661027 8.761117 -2.565049 18.941641 0.000000 0.000000 0.000000 -20.443537 13.957699 55.550769 76.088806 65.933817 -70.542972 0.000000 0.000000 0.000000 
0.018968 87.747589 -0.923859 0.000000 0.000000 0.000000 -14.073172 4.850096 -0.295380 -25.079592 -4.085346 14.069713 57.715017 0.011781 0.430574 -18.028132 -1.992072 -12.393166 -0.000037 0.000000 -0.000003 0.000000 0.000000 0.000000 -14.073172 4.850096 -0.295380 -20.839238 -8.126483 -17.056154 57.027059 -0.422614 -0.457885 -20.878287 -3.381782 11.410655 -0.000077 0.000002 0.000002 0.000000 0.000000 0.000000 -14.073172 4.850096 -0.295380 20.021376 -0.007244 0.780252 6.979991 -0.290166 0.652439 0.000000 0.000000 0.000000 0.000000 0.000000 0.000000 6.980281 -0.290652 0.647076 -12.655366 -1.453472 -0.540543 -15.752950 -1.939058 -0.008744 0.000000 0.000000 0.000000 6.980281 -0.290652 0.647076 3.065996 -10.097435 -6.449462 0.000000 0.000000 0.000000 -11.567993 -11.730445 -55.979424 65.753179 -64.570457 67.823000 0.000000 0.000000 0.000000 6.980281 -0.290652 0.647076 8.764861 -2.748732 18.669176 0.000000 0.000000 0.000000 -18.578787 14.943815 53.540682 75.831369 67.486832 -70.381671 0.000000 0.000000 0.000000 
0.054910 87.907158 -0.810366 0.000000 0.000000 0.000000 -14.274726 5.120183 -0.283527 -24.593450 -4.221003 13.964142 57.363173 0.004478 0.426958 -17.983991 -2.003296 -12.349621 -0.000037 -0.000001 -0.000003 0.000000 0.000000 0.000000 -14.274726 5.120183 -0.283527 -20.158743 -8.387726 -17.024586 56.529729 -0.414594 -0.450519 -20.844563 -3.525959 11.439155 -0.000077 -0.000000 0.000002 0.000000 0.000000 0.000000 -14.274726 5.120183 -0.283527 19.988530 0.020677 0.802902 6.936914 -0.235935 0.669644 0.000000 0.000000 0.000000 0.000000 0.000000 0.000000 6.937383 -0.235863 0.665621 -11.466840 -1.570874 -0.513835 -15.976733 -2.044569 -0.234300 0.000000 0.000000 0.000000 6.937383 -0.235863 0.665621 2.902706 -10.588567 -5.829103 0.000000 0.000000 0.000000 -8.209355 -14.344536 -51.118133 60.161338 -67.419923 62.302383 0.000000 0.000000 0.000000 6.937383 -0.235863 0.665621 8.526235 -2.817778 17.544555 0.000000 0.000000 0.000000 -14.887939 15.974358 49.852383 73.640053 71.996737 -68.447880 0.000000 0.000000 0.000000 
